<svg xmlns="http://www.w3.org/2000/svg" xmlns:xlink="http://www.w3.org/1999/xlink" width="76.345" height="76.345" viewBox="0 0 76.345 76.345">
  <defs>
    <clipPath id="clip-path">
      <rect id="Rectangle_424909" data-name="Rectangle 424909" width="48" height="51" transform="translate(929.051 3213)" fill="#fff" stroke="#707070" stroke-width="1" opacity="0"/>
    </clipPath>
  </defs>
  <g id="Group_1204164" data-name="Group 1204164" transform="translate(-915 -3200.3)">
    <g id="Group_1204149" data-name="Group 1204149" transform="translate(915 3200.3)">
      <g id="Group_1187152" data-name="Group 1187152">
        <g id="Group_1185946" data-name="Group 1185946">
          <g id="Group_1184280" data-name="Group 1184280">
            <g id="Group_1182168" data-name="Group 1182168">
              <g id="Group_1178877" data-name="Group 1178877">
                <g id="Group_1111311" data-name="Group 1111311">
                  <g id="Group_1098742" data-name="Group 1098742" transform="translate(0 0)">
                    <g id="Rectangle_400898" data-name="Rectangle 400898" transform="translate(0)" fill="#8fe8d5" stroke="#63a194" stroke-width="1" opacity="0.859">
                      <rect width="76.345" height="76.345" rx="38.172" stroke="none"/>
                      <rect x="0.5" y="0.5" width="75.345" height="75.345" rx="37.672" fill="none"/>
                    </g>
                    <g id="Rectangle_400907" data-name="Rectangle 400907" fill="none" stroke="#63a194" stroke-width="1">
                      <rect width="76.345" height="76.345" rx="38.172" stroke="none"/>
                      <rect x="0.5" y="0.5" width="75.345" height="75.345" rx="37.672" fill="none"/>
                    </g>
                  </g>
                </g>
              </g>
            </g>
          </g>
        </g>
      </g>
    </g>
    <g id="Mask_Group_1107817" data-name="Mask Group 1107817" clip-path="url(#clip-path)">
      <g id="ortografia_1_" data-name="ortografia (1)" transform="translate(928.416 3213.93)">
        <g id="Group_1204510" data-name="Group 1204510">
          <path id="Path_1263086" data-name="Path 1263086" d="M32.543.72H7.017L6.475.946,5.707,2.158v41.2l3.671,3.633.664,1.429h22.5A1.957,1.957,0,0,0,34.5,46.464V2.677A1.957,1.957,0,0,0,32.543.72Z" fill="#c9f0fe"/>
          <path id="Path_1263087" data-name="Path 1263087" d="M5.887,2.581A1.957,1.957,0,0,1,7.24.72H3.247A1.957,1.957,0,0,0,1.29,2.677V39.669h0l1.2.508,3.4,3.36V2.581Z" fill="#9be8fd"/>
          <path id="Path_1263088" data-name="Path 1263088" d="M38.323,25.778a9.238,9.238,0,0,0-3.2-2.087H34.069l-3.575,2.585-.768,1.809-1.344,3.575a21.58,21.58,0,0,1,.425,2.431c-.073.128,1.879,4.447,1.879,4.447L33.8,40.813l1.318.167h0a9.274,9.274,0,0,0,3.2-15.2Z" fill="#6b7ed9"/>
          <path id="Path_1263089" data-name="Path 1263089" d="M31.923,38.893a9.274,9.274,0,0,1,3.2-15.2,9.274,9.274,0,1,0,0,17.289A9.236,9.236,0,0,1,31.923,38.893Z" fill="#4d66d2"/>
          <path id="Path_1263090" data-name="Path 1263090" d="M30.331,26.659l-.6,1.425-1.344,3.575a21.58,21.58,0,0,1,.425,2.431c-.058.1,1.147,2.814,1.656,3.952a5.854,5.854,0,1,0-.132-11.384Z" fill="#a2e82d"/>
          <path id="Path_1263091" data-name="Path 1263091" d="M31.271,26.5a5.853,5.853,0,0,0,0,11.665A9.276,9.276,0,0,1,31.271,26.5Z" fill="#98d829"/>
          <path id="Path_1263092" data-name="Path 1263092" d="M40.481,41.884l.833-.833a1.4,1.4,0,0,1,1.978,0L47.441,45.2a1.4,1.4,0,0,1,0,1.978l-.833.833a1.4,1.4,0,0,1-1.978,0L40.48,43.862A1.4,1.4,0,0,1,40.481,41.884Z" fill="#ff4fb9"/>
          <path id="Path_1263093" data-name="Path 1263093" d="M10.042,48.421v-6.8a1.957,1.957,0,0,0-1.957-1.957H1.29Z" fill="#62ddfc"/>
        </g>
        <g id="Group_1204514" data-name="Group 1204514">
          <circle id="Ellipse_12390" data-name="Ellipse 12390" cx="9.274" cy="9.274" r="9.274" transform="translate(22.491 23.061)" fill="none" stroke="#000" stroke-linecap="round" stroke-linejoin="round" stroke-miterlimit="10" stroke-width="1.44"/>
          <path id="Path_1263094" data-name="Path 1263094" d="M40.48,41.884l.833-.833a1.4,1.4,0,0,1,1.978,0L47.441,45.2a1.4,1.4,0,0,1,0,1.978l-.833.833a1.4,1.4,0,0,1-1.978,0L40.48,43.862A1.4,1.4,0,0,1,40.48,41.884Z" fill="none" stroke="#000" stroke-linecap="round" stroke-linejoin="round" stroke-miterlimit="10" stroke-width="1.44"/>
          <g id="Group_1204513" data-name="Group 1204513">
            <path id="Path_1263095" data-name="Path 1263095" d="M28,7.817a3.8,3.8,0,1,0,0,6.327" fill="none" stroke="#000" stroke-linecap="round" stroke-linejoin="round" stroke-miterlimit="10" stroke-width="1.44"/>
            <g id="Group_1204511" data-name="Group 1204511">
              <path id="Path_1263096" data-name="Path 1263096" d="M18.246,10.789h-.559a1.806,1.806,0,0,0,1.806-1.806h0a1.806,1.806,0,0,0-1.806-1.806H15.561v7.608h2.685a2,2,0,0,0,0-4Z" fill="none" stroke="#000" stroke-linecap="round" stroke-linejoin="round" stroke-miterlimit="10" stroke-width="1.44"/>
              <line id="Line_707" data-name="Line 707" x1="1.649" transform="translate(16.037 10.789)" fill="none" stroke="#000" stroke-linecap="round" stroke-linejoin="round" stroke-miterlimit="10" stroke-width="1.44"/>
            </g>
            <g id="Group_1204512" data-name="Group 1204512">
              <path id="Path_1263097" data-name="Path 1263097" d="M13.555,14.784,10.671,7.177,7.788,14.784" fill="none" stroke="#000" stroke-linecap="round" stroke-linejoin="round" stroke-miterlimit="10" stroke-width="1.44"/>
              <line id="Line_708" data-name="Line 708" x2="3.436" transform="translate(8.968 12.903)" fill="none" stroke="#000" stroke-linecap="round" stroke-linejoin="round" stroke-miterlimit="10" stroke-width="1.44"/>
            </g>
          </g>
          <path id="Path_1263098" data-name="Path 1263098" d="M9.015,18.152l2.96,3.171,2.96-3.171,2.96,3.171,2.96-3.171,2.96,3.171,2.96-3.171" fill="none" stroke="#000" stroke-linecap="round" stroke-linejoin="round" stroke-miterlimit="10" stroke-width="1.44"/>
          <path id="Path_1263099" data-name="Path 1263099" d="M10.042,48.421v-6.8a1.957,1.957,0,0,0-1.957-1.957H1.29Z" fill="none" stroke="#000" stroke-linecap="round" stroke-linejoin="round" stroke-miterlimit="10" stroke-width="1.44"/>
          <line id="Line_709" data-name="Line 709" x2="2.116" y2="2.116" transform="translate(38.586 39.166)" fill="none" stroke="#000" stroke-linecap="round" stroke-linejoin="round" stroke-miterlimit="10" stroke-width="1.44"/>
          <path id="Path_1263100" data-name="Path 1263100" d="M29.927,32.41l1.448,1.448L33.8,31.437" fill="none" stroke="#000" stroke-linecap="round" stroke-linejoin="round" stroke-miterlimit="10" stroke-width="1.44"/>
          <path id="Path_1263101" data-name="Path 1263101" d="M21.923,48.421H32.542A1.957,1.957,0,0,0,34.5,46.464V41.2a9.274,9.274,0,1,1,0-17.723V2.677A1.957,1.957,0,0,0,32.542.72H3.247A1.957,1.957,0,0,0,1.29,2.677V39.669l8.752,8.752h8.522" fill="none" stroke="#000" stroke-linecap="round" stroke-linejoin="round" stroke-miterlimit="10" stroke-width="1.44"/>
          <path id="Path_1263102" data-name="Path 1263102" d="M37.458,30.968a5.854,5.854,0,1,0-.187,3.359" fill="none" stroke="#000" stroke-linecap="round" stroke-linejoin="round" stroke-miterlimit="10" stroke-width="1.44"/>
        </g>
      </g>
    </g>
  </g>
</svg>
