<svg xmlns="http://www.w3.org/2000/svg" xmlns:xlink="http://www.w3.org/1999/xlink" width="107.999" height="108" viewBox="0 0 107.999 108">
  <defs>
    <filter id="Rectangle_411831" x="0" y="0" width="107.999" height="108" filterUnits="userSpaceOnUse">
      <feOffset dy="3" input="SourceAlpha"/>
      <feGaussianBlur stdDeviation="3" result="blur"/>
      <feFlood flood-opacity="0.161"/>
      <feComposite operator="in" in2="blur"/>
      <feComposite in="SourceGraphic"/>
    </filter>
    <clipPath id="clip-path">
      <rect id="Rectangle_424875" data-name="Rectangle 424875" width="60" height="69" transform="translate(15.051 10.546)" fill="#fff" stroke="#707070" stroke-width="1" opacity="0"/>
    </clipPath>
  </defs>
  <g id="Group_1204186" data-name="Group 1204186" transform="translate(8.999 6)">
    <g id="Group_1204038" data-name="Group 1204038" transform="translate(0)">
      <g id="Group_1203409" data-name="Group 1203409" transform="translate(0.001)">
        <g transform="matrix(1, 0, 0, 1, -9, -6)" filter="url(#Rectangle_411831)">
          <g id="Rectangle_411831-2" data-name="Rectangle 411831" transform="translate(9 6)" fill="#8fe8d5" stroke="#fff" stroke-width="2">
            <path d="M5,0H58A32,32,0,0,1,90,32V85a5,5,0,0,1-5,5H32A32,32,0,0,1,0,58V5A5,5,0,0,1,5,0Z" stroke="none"/>
            <path d="M5,1H58A31,31,0,0,1,89,32V85a4,4,0,0,1-4,4H32A31,31,0,0,1,1,58V5A4,4,0,0,1,5,1Z" fill="none"/>
          </g>
        </g>
      </g>
      <path id="Path_1260076" data-name="Path 1260076" d="M16.614.687H.856V7.046h11.25L.856,18.219,5.4,22.735,16.614,11.6V22.735h6.441V.687Z" transform="translate(-0.856 67.265)" fill="#1f1321" fill-rule="evenodd"/>
      <path id="Path_1260092" data-name="Path 1260092" d="M5.755,17.459H17.742V12.622H9.184l8.558-8.5L14.284.687,5.755,9.157V.687H.856V17.459Z" transform="translate(72.258 -0.686)" fill="#1f1321" fill-rule="evenodd"/>
    </g>
    <g id="Mask_Group_1107827" data-name="Mask Group 1107827" clip-path="url(#clip-path)">
      <g id="estado-de-resultados" transform="translate(14.951 14.942)">
        <path id="Path_1263233" data-name="Path 1263233" d="M59.136,49.164H52.045V10.136a1.5,1.5,0,0,0-1.493-1.493H41.544V2.74a.956.956,0,0,0-.952-.952H7.737a.956.956,0,0,0-.952.952V5.974a3.414,3.414,0,0,0-4.268,4.21l.529,1.764a1.443,1.443,0,0,0-.858,1.764l.306,1.023-.694.212A2.4,2.4,0,0,0,.2,17.921L3.375,28.468a.967.967,0,0,0,.917.682A.95.95,0,0,0,5.2,27.927L2.023,17.368c-.176-.611.623-.682,1.023-.823L6.785,28.95V52.915a.949.949,0,0,0,.952.952h8.8a7.006,7.006,0,0,0,6.55,4.551H53.1a7.008,7.008,0,0,0,7-7.008V50.116A.974.974,0,0,0,59.136,49.164ZM8.69,3.692H39.651V8.643H17.58a1.488,1.488,0,0,0-1.493,1.493V27.069L11.242,10.983A1.473,1.473,0,0,0,9.548,10a16.116,16.116,0,0,0-.858-2.5Zm7.4,25.07v2.9c-.012-.035-.659-2.211-.694-2.317A1.6,1.6,0,0,0,16.086,28.762ZM4.457,8.5a1.5,1.5,0,0,1,2.516-.176,13.08,13.08,0,0,1,.753,2.2c-.482.153-2.34.706-2.857.858-.2-.882-.894-2.1-.412-2.881ZM4.6,15.11a.043.043,0,0,0-.012-.035l-.447-1.482c1.423-.423,3.975-1.188,5.409-1.623l4.739,15.745-5.4,1.623-.235-.8ZM8.69,51.963V31.337l.2-.035,4.974,16.474a1.1,1.1,0,0,0,.894.811L16.1,49.846c.012.412-.024,1.729.024,2.117Zm6.761-5.456c-.094-.329-4.5-14.946-4.751-15.745l2.857-.858c.694,2.317,3.986,13.229,4.739,15.745Zm2.234,2.234-.753-.706.976-.294Zm6.585,7.62a5.1,5.1,0,0,1-6.279-4.88,1.783,1.783,0,0,0,.247.035.981.981,0,0,0,.929-.729L20.061,47a1.53,1.53,0,0,0,.212-.27,1.125,1.125,0,0,0,.094-.87l-2.375-7.89V10.548H50.164V49.176H29.127a.949.949,0,0,0-.952.952v1.129a5.292,5.292,0,0,1-3.9,5.1ZM58.195,51.41a5.1,5.1,0,0,1-5.092,5.1H27.857a7.032,7.032,0,0,0,2.211-5.444H58.183v.341Z" fill="#231f20"/>
        <path id="Path_1263234" data-name="Path 1263234" d="M14.287,27.7l-5.4,1.623c-.47-1.564-4.327-14.334-4.751-15.745,1.423-.423,3.975-1.188,5.409-1.623Z" fill="#6bd4e0"/>
        <g id="Group_1204560" data-name="Group 1204560">
          <path id="Path_1263235" data-name="Path 1263235" d="M17.921,47.753l-.235.988-.741-.694Z" fill="#f4644d"/>
          <path id="Path_1263236" data-name="Path 1263236" d="M7.726,10.524c-.482.153-2.34.706-2.857.858l-.529-1.74A1.493,1.493,0,1,1,7.2,8.772C7.208,8.784,7.726,10.524,7.726,10.524Z" fill="#f4644d"/>
          <path id="Path_1263237" data-name="Path 1263237" d="M18.309,45.648l-2.857.858c-.094-.329-4.5-14.946-4.751-15.745l2.857-.858c.706,2.317,4,13.229,4.751,15.745Z" fill="#f4644d"/>
        </g>
        <g id="Group_1204561" data-name="Group 1204561">
          <path id="Path_1263238" data-name="Path 1263238" d="M16.086,28.762v2.9c-.012-.035-.658-2.211-.694-2.317a1.6,1.6,0,0,0,.694-.588Z" fill="#e5cfbd"/>
          <path id="Path_1263239" data-name="Path 1263239" d="M16.11,51.963H8.69V31.337l.2-.035,4.974,16.474a1.1,1.1,0,0,0,.894.811L16.1,49.846c-.012.412-.035,1.729.012,2.117Z" fill="#e5cfbd"/>
          <path id="Path_1263240" data-name="Path 1263240" d="M39.651,3.692V8.643H17.58a1.488,1.488,0,0,0-1.493,1.493V27.069L11.242,10.983A1.473,1.473,0,0,0,9.548,10a16.115,16.115,0,0,0-.858-2.5v-3.8Z" fill="#e5cfbd"/>
          <path id="Path_1263241" data-name="Path 1263241" d="M58.195,51.069A5.127,5.127,0,0,1,53.1,56.513H27.869a7.032,7.032,0,0,0,2.211-5.444Z" fill="#e5cfbd"/>
        </g>
        <path id="Path_1263242" data-name="Path 1263242" d="M17.979,10.548V37.97l2.375,7.89a1.13,1.13,0,0,1-.094.87c-.047.106-.153.176-.212.27l-.894,3.786a.954.954,0,0,1-.929.729,1.784,1.784,0,0,1-.247-.035c.4,6.832,9.948,6.585,10.195-.223V50.128a.949.949,0,0,1,.952-.952H50.152V10.548Zm4.433,12.876a.742.742,0,0,1,1.317.47,2.337,2.337,0,0,0,.376,1.129,2.436,2.436,0,0,0,1.423.882V22.636c-3.939-.635-3.845-5.092,0-5.515v-.564a.729.729,0,1,1,1.458,0v.576a3.078,3.078,0,0,1,3,2.975.723.723,0,0,1-.165.553A.759.759,0,0,1,28.48,20.2a1.691,1.691,0,0,0-1.505-1.682v2.857c1.352.341,2.175.588,2.869,1.529,1.341,2.046-.553,4.468-2.869,4.48v.541a.729.729,0,0,1-1.458,0v-.588a3.406,3.406,0,0,1-3.281-3.351.849.849,0,0,1,.176-.564ZM47.283,43.8H21.589a.947.947,0,0,1,0-1.893H47.283A.947.947,0,0,1,47.283,43.8Zm0-6.867H21.589a.947.947,0,0,1,0-1.893H47.283A.947.947,0,0,1,47.283,36.935Zm0-6.867H34.03a.947.947,0,0,1,0-1.893H47.283A.947.947,0,0,1,47.283,30.068Zm0-6.879H34.03a.947.947,0,0,1,0-1.893H47.283A.947.947,0,0,1,47.283,23.189Zm0-6.867H34.03a.947.947,0,0,1,0-1.893H47.283A.947.947,0,0,1,47.283,16.321Z" fill="#efeae6"/>
        <path id="Path_1263243" data-name="Path 1263243" d="M29.879,22.918c-.694-.941-1.517-1.176-2.869-1.529V18.532a1.682,1.682,0,0,1,1.505,1.682.76.76,0,0,0,1.341.459.737.737,0,0,0,.165-.553,3.087,3.087,0,0,0-3-2.975v-.576a.729.729,0,0,0-1.458,0v.564c-3.845.423-3.927,4.88,0,5.515v3.269a2.38,2.38,0,0,1-1.423-.882c-.553-.788-.165-1.164-.623-1.682a.736.736,0,0,0-1.082.082,2.636,2.636,0,0,0,.4,2.4,3.582,3.582,0,0,0,2.728,1.529v.588a.729.729,0,0,0,1.458,0V27.41c2.3-.024,4.2-2.458,2.857-4.492ZM25.54,21.025a3.172,3.172,0,0,1-1.07-.459c-.835-.8-.012-2,1.07-2.058Zm3.01,4.221a2.161,2.161,0,0,1-1.54.729V23.012C28.245,23.224,29.338,24.035,28.551,25.246Z" fill="#231f20"/>
        <path id="Path_1263244" data-name="Path 1263244" d="M25.54,18.509v2.516a3.172,3.172,0,0,1-1.07-.459C23.647,19.767,24.459,18.556,25.54,18.509Z" fill="#efeae6"/>
        <path id="Path_1263245" data-name="Path 1263245" d="M28.809,24.482c0,.917-.894,1.411-1.787,1.482V23c.917.247,1.752.506,1.787,1.482Z" fill="#efeae6"/>
        <g id="Group_1204562" data-name="Group 1204562">
          <path id="Path_1263246" data-name="Path 1263246" d="M48.235,15.369a.949.949,0,0,1-.952.952H34.03a.952.952,0,1,1,0-1.9H47.283a.956.956,0,0,1,.952.952Z" fill="#231f20"/>
          <path id="Path_1263247" data-name="Path 1263247" d="M48.235,22.236a.949.949,0,0,1-.952.952H34.03a.952.952,0,0,1,0-1.9H47.283a.964.964,0,0,1,.952.952Z" fill="#231f20"/>
          <path id="Path_1263248" data-name="Path 1263248" d="M48.235,29.115a.949.949,0,0,1-.952.952H34.03a.952.952,0,0,1,0-1.9H47.283a.949.949,0,0,1,.952.952Z" fill="#231f20"/>
          <path id="Path_1263249" data-name="Path 1263249" d="M48.235,35.982a.956.956,0,0,1-.952.952H21.589a.952.952,0,0,1,0-1.9H47.283A.949.949,0,0,1,48.235,35.982Z" fill="#231f20"/>
          <path id="Path_1263250" data-name="Path 1263250" d="M48.235,42.849a.949.949,0,0,1-.952.952H21.589a.952.952,0,1,1,0-1.9H47.283A.956.956,0,0,1,48.235,42.849Z" fill="#231f20"/>
        </g>
      </g>
    </g>
  </g>
</svg>
